<svg width="24" height="24" viewBox="0 0 24 24" fill="none" xmlns="http://www.w3.org/2000/svg">
<path d="M20.7758 5.21256L20.776 5.2128C21.2438 5.67577 21.6145 6.22506 21.8672 6.8291C22.12 7.43312 22.25 8.08027 22.25 8.73364C22.25 9.38701 22.12 10.0342 21.8672 10.6382C21.6145 11.2422 21.2438 11.7915 20.776 12.2545L20.7759 12.2546L19.6603 13.3593L11.9997 20.9445L4.33917 13.3593L3.22355 12.2546C2.27918 11.3195 1.75 10.0528 1.75 8.73364C1.75 7.41445 2.27918 6.14777 3.22355 5.21268C4.16817 4.27734 5.45091 3.75056 6.78997 3.75056C8.12903 3.75056 9.41177 4.27734 10.3564 5.21268L11.472 6.31734C11.7643 6.60675 12.2351 6.60675 12.5274 6.31734L13.643 5.21268L13.6432 5.21256C14.1108 4.74935 14.6663 4.38152 15.2783 4.13043C15.8903 3.87933 16.5466 3.75 17.2095 3.75C17.8724 3.75 18.5286 3.87933 19.1406 4.13043C19.7526 4.38152 20.3082 4.74935 20.7758 5.21256Z" stroke="#F4F8FB" stroke-width="1.5" stroke-linecap="round" stroke-linejoin="round"/>
</svg>
