<svg width="22" height="22" viewBox="0 0 22 22" fill="none" xmlns="http://www.w3.org/2000/svg">
<path d="M16.4874 5.73684C16.9259 5.56574 17.3793 5.94945 17.283 6.41016L15.3163 15.8109C15.2244 16.2516 14.7067 16.4501 14.3437 16.1835L11.3748 14.0042L9.8615 15.5494C9.59556 15.8206 9.13704 15.7102 9.02296 15.3487L7.93113 11.8827L5.00444 11.0183C4.62 10.9049 4.59778 10.3702 4.97036 10.2242L16.4874 5.73684ZM15.0437 7.82276C15.1718 7.70941 15.0229 7.50943 14.8778 7.59979L8.5607 11.5176C8.44959 11.5864 8.3985 11.722 8.43773 11.8472L9.29921 15.6301C9.31627 15.6879 9.3992 15.6798 9.40663 15.6198L9.59922 12.7368C9.60661 12.6657 9.64068 12.6005 9.69405 12.5531L15.0437 7.82276Z" fill="#D9D9D9"/>
<path d="M14.8789 7.60091C15.0241 7.51055 15.173 7.71052 15.0448 7.82388L9.69523 12.5543C9.6419 12.6017 9.60783 12.6668 9.60039 12.7379L9.40781 15.6209C9.40042 15.6809 9.31745 15.689 9.30039 15.6312L8.43891 11.8483C8.39963 11.7231 8.45077 11.5875 8.56188 11.5187L14.8789 7.60091Z" fill="#9EC2E5"/>
<path d="M9.33036 15.6694C9.1911 15.6197 9.07332 15.5086 9.02296 15.3486L7.93113 11.8827L5.00444 11.0182C4.62 10.9049 4.59778 10.3701 4.97036 10.2242L16.4874 5.7368C16.7703 5.62641 17.06 5.74715 17.2029 5.97089C17.1762 5.93016 17.1444 5.89239 17.1089 5.85904L9.29551 12.2375V12.5168L9.25255 12.4857L9.29551 14.2442V15.6546C9.30664 15.6598 9.31846 15.6642 9.33032 15.6679V15.6694H9.33036Z" fill="#D9D9D9"/>
<path d="M9.8223 15.5859C9.80888 15.5972 9.79541 15.6076 9.78125 15.6173V15.6166C9.79545 15.6069 9.80888 15.5972 9.8223 15.5859Z" fill="#D9D9D9"/>
<path d="M9.69531 15.6642C9.72593 15.6515 9.75503 15.6359 9.78339 15.6172C9.75503 15.6358 9.72515 15.6515 9.69531 15.6642Z" fill="#D9D9D9"/>
<path d="M9.45312 15.6975C9.51831 15.7041 9.58422 15.6989 9.64868 15.6797C9.60201 15.6945 9.55384 15.7012 9.50572 15.7012C9.49089 15.7012 9.47607 15.7004 9.46202 15.6989C9.45905 15.699 9.45609 15.699 9.45312 15.6975Z" fill="#D9D9D9"/>
<path d="M9.50498 15.7015C9.49004 15.7015 9.4751 15.7007 9.46094 15.6992C9.4751 15.7007 9.49004 15.7015 9.50498 15.7015Z" fill="#D9D9D9"/>
<path d="M9.45351 15.6978C9.45647 15.6993 9.45944 15.6993 9.4624 15.6993C9.44685 15.6986 9.43275 15.6963 9.41797 15.6934C9.42979 15.6956 9.44165 15.6971 9.45351 15.6978Z" fill="#D9D9D9"/>
<path d="M9.45271 15.6968C9.44085 15.6961 9.42899 15.6946 9.41717 15.6924C9.41197 15.6917 9.40681 15.691 9.40234 15.6895C9.41863 15.6924 9.43565 15.6954 9.45271 15.6968Z" fill="#D9D9D9"/>
<path d="M9.34766 15.6738C9.36394 15.679 9.38027 15.6834 9.39655 15.6879C9.38989 15.6865 9.38323 15.685 9.37657 15.6835C9.37361 15.6828 9.37064 15.682 9.36841 15.6805C9.36171 15.679 9.35432 15.6768 9.34766 15.6738Z" fill="#D9D9D9"/>
<path d="M9.375 15.6836C9.38081 15.6849 9.38661 15.6862 9.39242 15.6875C9.38661 15.6868 9.38081 15.6855 9.375 15.6836Z" fill="#D9D9D9"/>
<path d="M9.34472 15.6736C9.35143 15.6766 9.35892 15.6789 9.36563 15.6804C9.35442 15.6781 9.34325 15.6744 9.33203 15.6699C9.33649 15.6714 9.34022 15.6729 9.34472 15.6736Z" fill="#D9D9D9"/>
<path d="M9.34647 15.6734C9.34236 15.6728 9.33889 15.6714 9.33478 15.67C9.33411 15.6707 9.33271 15.67 9.33203 15.6693V15.668C9.33682 15.6707 9.34165 15.672 9.34647 15.6734Z" fill="#D9D9D9"/>
<path d="M9.29688 14.2441L9.33168 15.6678C9.31982 15.6641 9.30796 15.6597 9.29688 15.6545V14.2441Z" fill="#D9D9D9"/>
<path d="M9.29687 12.5174V14.2449L9.25391 12.4863L9.29687 12.5174Z" fill="#D9D9D9"/>
<path d="M15.0448 7.82385L9.69523 12.5542C9.6419 12.6016 9.60783 12.6668 9.6004 12.7379L9.40815 15.6211C9.40076 15.6811 9.31779 15.6893 9.3 15.6315L8.43891 11.8483C8.39963 11.7231 8.45077 11.5876 8.56188 11.5187L14.8789 7.60093C15.0241 7.51052 15.173 7.71054 15.0448 7.82385Z" fill="#ADBCC9"/>
</svg>
