<svg width="14" height="14" viewBox="0 0 14 14" fill="none" xmlns="http://www.w3.org/2000/svg">
<path d="M12.8208 3.73051L12.8172 3.71599C12.5233 2.52777 11.1982 1.2528 9.98133 0.987557L9.96762 0.984721C7.9994 0.60926 6.00371 0.60926 4.03592 0.984721L4.02178 0.987557C2.80534 1.2528 1.48022 2.52786 1.18593 3.71599L1.18266 3.73051C0.81932 5.38984 0.81932 7.07266 1.18266 8.73199L1.18593 8.74651C1.46772 9.88398 2.69409 11.1004 3.86555 11.4349V12.7613C3.86555 13.2414 4.45057 13.4772 4.78323 13.1307L6.12708 11.7338C6.41858 11.7501 6.71021 11.7592 7.00175 11.7592C7.99248 11.7592 8.98368 11.6655 9.96758 11.4778L9.98129 11.475C11.1982 11.2097 12.5232 9.93469 12.8171 8.74656L12.8207 8.73203C13.1841 7.07267 13.1841 5.38992 12.8208 3.73051ZM11.7573 8.49141C11.561 9.26661 10.555 10.2303 9.75557 10.4084C8.70907 10.6074 7.65423 10.6924 6.60046 10.6633C6.57949 10.6627 6.55934 10.6708 6.54478 10.6859C6.3952 10.8394 5.56358 11.6931 5.56358 11.6931L4.51996 12.7643C4.44365 12.8438 4.30959 12.7897 4.30959 12.6799V10.4826C4.30959 10.4463 4.28367 10.4155 4.24801 10.4085C4.2478 10.4084 4.24762 10.4084 4.24741 10.4083C3.44802 10.2303 2.44229 9.26656 2.24571 8.49136C1.91868 6.9915 1.91868 5.471 2.24571 3.97114C2.44229 3.19594 3.44802 2.23223 4.24741 2.05417C6.07513 1.70655 7.92828 1.70655 9.75562 2.05417C10.5554 2.23223 11.5611 3.19594 11.7573 3.97114C12.0847 5.47105 12.0847 6.99154 11.7573 8.49141Z" fill="#D9D9D9"/>
<path d="M8.7425 9.50572C8.61961 9.46838 8.50252 9.44333 8.39368 9.39826C7.26656 8.93063 6.2293 8.32734 5.40769 7.40261C4.94045 6.87676 4.57475 6.28306 4.26563 5.65477C4.11902 5.35683 3.99548 5.04724 3.86954 4.73958C3.75473 4.45908 3.92385 4.1693 4.10192 3.95789C4.26902 3.75951 4.48408 3.60774 4.71697 3.49581C4.89873 3.4085 5.07799 3.45886 5.21077 3.6129C5.49771 3.94599 5.76137 4.2961 5.97475 4.68222C6.10602 4.91971 6.07001 5.21 5.8321 5.37161C5.77426 5.41088 5.72158 5.45703 5.66774 5.50138C5.62048 5.54026 5.57605 5.57954 5.54365 5.63217C5.48448 5.72847 5.48164 5.84212 5.51971 5.94683C5.81306 6.75297 6.3075 7.37988 7.11897 7.71758C7.24882 7.77159 7.37919 7.83445 7.5288 7.81705C7.77931 7.78779 7.86044 7.51296 8.03601 7.3694C8.20758 7.22911 8.42689 7.22726 8.6117 7.34422C8.7966 7.46127 8.97578 7.58682 9.15392 7.71379C9.32881 7.8384 9.50287 7.96022 9.66413 8.10232C9.81925 8.23891 9.87266 8.4181 9.78531 8.60342C9.62546 8.94292 9.39279 9.22526 9.05724 9.40556C8.9625 9.45635 8.84932 9.47281 8.7425 9.50572C8.84932 9.47281 8.61961 9.46838 8.7425 9.50572Z" fill="#D9D9D9"/>
<path d="M7.00396 3.108C8.47818 3.14934 9.68908 4.1277 9.94857 5.5852C9.99279 5.83356 10.0085 6.08742 10.0282 6.33951C10.0365 6.44552 9.97642 6.54624 9.86203 6.54765C9.74387 6.54907 9.69072 6.45016 9.68298 6.34424C9.66781 6.13447 9.65729 5.92371 9.62837 5.71574C9.47579 4.6175 8.60008 3.70892 7.50696 3.51397C7.34243 3.48463 7.17416 3.47693 7.00749 3.45945C6.90217 3.4484 6.76424 3.44204 6.74091 3.31107C6.72136 3.20129 6.814 3.11389 6.91854 3.10826C6.94686 3.10659 6.97543 3.10792 7.00396 3.108C6.97543 3.10792 8.47827 3.14934 7.00396 3.108Z" fill="#D9D9D9"/>
<path d="M9.24323 6.01144C9.24078 6.02988 9.23953 6.07314 9.2287 6.11388C9.1896 6.26186 8.96513 6.28038 8.91352 6.13107C8.89819 6.08677 8.89591 6.03632 8.89582 5.98863C8.89531 5.67641 8.82746 5.36446 8.66998 5.09277C8.50811 4.81352 8.26079 4.57886 7.97079 4.43676C7.79539 4.35091 7.60577 4.2975 7.41353 4.26575C7.32952 4.25183 7.24462 4.24345 7.16018 4.23168C7.05787 4.21745 7.00322 4.15227 7.00812 4.05146C7.01263 3.95702 7.08168 3.889 7.18463 3.89489C7.52293 3.91405 7.84975 3.98727 8.15057 4.14651C8.76219 4.47045 9.11161 4.98169 9.21362 5.66443C9.21822 5.69541 9.22561 5.726 9.22797 5.75702C9.23373 5.83359 9.23738 5.91029 9.24323 6.01144C9.23738 5.91029 9.24078 6.02979 9.24323 6.01144Z" fill="#D9D9D9"/>
<path d="M8.32886 5.97676C8.20553 5.97899 8.13953 5.91067 8.12677 5.79766C8.11796 5.71886 8.11092 5.63894 8.0921 5.56219C8.05506 5.41107 7.97475 5.27108 7.84765 5.17848C7.78766 5.13478 7.71964 5.10294 7.64844 5.08232C7.55799 5.05615 7.46398 5.06337 7.37379 5.04128C7.27577 5.01727 7.22155 4.93786 7.23697 4.84595C7.25098 4.76225 7.33236 4.69693 7.42384 4.70359C7.99542 4.74484 8.40392 5.04034 8.46223 5.71323C8.4664 5.76071 8.47121 5.81086 8.46068 5.85636C8.44255 5.934 8.38497 5.97298 8.32886 5.97676C8.38497 5.97298 8.20549 5.97895 8.32886 5.97676Z" fill="#D9D9D9"/>
</svg>
